# xmcd
#
# Track frame offsets: 
#        150
#        25492
#        52082
#        66982
#        73520
#        89722
#        127552
#        142305
#        166302
#        183022
#        205132
#        222122
#        240702
#        264147
#        284875
#
# Disc length: 4051 seconds
#
# Revision: 3
# Processed by: cddbd v1.5.2PL0 Copyright (c) Steve Scherf et al.
# Submitted via: ExactAudioCopy v1.0b3
#
DISCID=e80fd10f
DTITLE=Livin' Blues - Blue Breeze
DYEAR=1976
DGENRE=Blues
TTITLE0=Shylina
TTITLE1=Back Stage
TTITLE2=Midnight Blues
TTITLE3=Pisces
TTITLE4=Bus 29
TTITLE5=Blue Breeze
TTITLE6=Pick Up On My Mojo
TTITLE7=That Night
TTITLE8=Black Jack Billy
TTITLE9=Shannon (bonus)
TTITLE10=Punk Funk (bonus)
TTITLE11=Roses (bonus)
TTITLE12=Rock and Roll Hoochie Coo (bonus)
TTITLE13=Will You Still Love Me (bonus)
TTITLE14=Doomsday Night (bonus)
EXTD=
EXTT0=
EXTT1=
EXTT2=
EXTT3=
EXTT4=
EXTT5=
EXTT6=
EXTT7=
EXTT8=
EXTT9=
EXTT10=
EXTT11=
EXTT12=
EXTT13=
EXTT14=
PLAYORDER=
